Coordinates
version=1
nRows=6
nColumns=107
inDegrees=yes

Units are S.I. units (second, meters, Newtons, ...)
If the header above contains a line with 'inDegrees', this indicates whether rotational values are in degrees (yes) or radians (no).

endheader
time	sternoclavicular_r2	sternoclavicular_r3	unrotscap_r3	unrotscap_r2	acromioclavicular_r2	acromioclavicular_r3	acromioclavicular_r1	unrothum_r1	unrothum_r3	unrothum_r2	elv_angle	shoulder_elv	shoulder1_r2	shoulder_rot	elbow_flexion	pro_sup	deviation	flexion	proximal_distal_r1	proximal_distal_r3	cmc_flexion	cmc_abduction	mp_flexion	ip_flexion	mcp2_flexion	mcp2_abduction	pm2_flexion	md2_flexion	mcp3_flexion	mcp3_abduction	pm3_flexion	md3_flexion	mcp4_flexion	mcp4_abduction	pm4_flexion	md4_flexion	mcp5_flexion	mcp5_abduction	pm5_flexion	md5_flexion	bicpt_tx	bicpt_ty	bicpt_tz	bicpt2_tx	bicpt2_ty	bicpt2_tz	ptpt_tx	ptpt_ty	ptpt_tz	FCUpt_tx	FCUpt_ty	FCUpt_tz	EDCpt_tx	EDCpt_ty	EDCpt_tz	APLpt_tx	APLpt_ty	APLpt_tz	FPLpt_tx	FPLpt_ty	FPLpt_tz	FPLpt2_tx	FPLpt2_ty	FPLpt2_tz	PEC1pt2_tx	PEC1pt2_ty	PEC1pt2_tz	PEC1pt3_tx	PEC1pt3_ty	PEC1pt3_tz	PEC2pt2_tx	PEC2pt2_ty	PEC2pt2_tz	PEC2pt3_tx	PEC2pt3_ty	PEC2pt3_tz	PEC3pt2_tx	PEC3pt2_ty	PEC3pt2_tz	PEC3pt3_tx	PEC3pt3_ty	PEC3pt3_tz	DELT2pt2a_tx	DELT2pt2a_ty	DELT2pt2a_tz	DELT2pt2_tx	DELT2pt2_ty	DELT2pt2_tz	LAT1pt2_tx	LAT1pt2_ty	LAT1pt2_tz	LAT1pt3_tx	LAT1pt3_ty	LAT1pt3_tz	LAT2pt2_tx	LAT2pt2_ty	LAT2pt2_tz	LAT2pt3_tx	LAT2pt3_ty	LAT2pt3_tz	LAT3pt2_tx	LAT3pt2_ty	LAT3pt2_tz	LAT3pt3_tx	LAT3pt3_ty	LAT3pt3_tz
      0.80000000	     -0.31645953	      0.13403732	     -0.13403732	      0.31645953	     -0.06407662	      0.51784469	      0.23276762	     -0.23276762	     -0.51784469	      0.06407662	     99.87265619	     74.92460706	     -1.74310668	    -26.33875400	     28.56722505	     11.30435112	     -0.08250549	     -0.84817471	     -0.11754326	     -0.42408736	     -8.23973274	      6.04343829	    -31.61989892	      3.75173540	     21.44652713	      9.69982496	     12.87532285	    -23.26505790	     46.25771879	     10.46218618	     85.68118947	     66.66171736	     35.80526488	     -5.43564078	     85.98079195	     49.72104253	     -3.86061981	     -4.20971751	     -3.00018692	      4.96574325	      0.00084492	     -0.03087424	     -0.00482739	      0.01557888	     -0.01796043	     -0.00995606	      0.00671474	     -0.06544010	     -0.00096063	      0.00501827	     -0.18397509	      0.00012735	     -0.00135652	      0.00034001	      0.00012928	      0.00026534	      0.00010614	      0.00053068	      0.00033963	      0.00101890	      0.00057313	     -0.00090819	      0.00024371	      0.00029245	      0.00245586	      0.00861634	      0.00599397	     -0.00803359	      0.01939716	     -0.01839817	      0.00245586	      0.00861634	      0.00599397	      0.00054112	      0.01798192	     -0.00944883	      0.00390063	      0.00479144	      0.01585082	      0.00000000	      0.00750587	      0.00000000	     -0.00703459	     -0.03250898	     -0.00618735	      0.01716536	     -0.00063414	     -0.00580053	     -0.00087412	      0.01465194	     -0.00599397	      0.00241424	      0.02114541	     -0.01748242	     -0.00586910	      0.01269557	     -0.00536960	     -0.01223770	      0.02680638	     -0.03001149	     -0.02297690	      0.01419406	     -0.00720109	     -0.01523468	      0.03096886	     -0.03750396
      0.83333333	     -0.31642631	      0.13402325	     -0.13402325	      0.31642631	     -0.06406989	      0.51779032	      0.23274318	     -0.23274318	     -0.51779032	      0.06406989	     99.88600795	     74.91674085	     -1.74333972	    -26.18633221	     28.39847550	      9.76542033	     -0.09561201	     -0.80798337	     -0.13724137	     -0.40399169	     -6.23485480	      5.75463020	    -31.20110562	      3.83573411	     24.44864912	      9.57539642	     14.31317876	    -22.59181701	     42.49619751	      9.97538098	     83.30807472	     65.59891863	     30.85224419	     -6.08555010	     83.39706104	     48.76345502	     -1.07528369	     -6.12351309	     -1.12005144	      5.08380791	      0.00083933	     -0.03085490	     -0.00482428	      0.01547231	     -0.01791459	     -0.01005679	      0.00682845	     -0.06536657	     -0.00083666	      0.00487732	     -0.18399424	      0.00017241	     -0.00117185	      0.00029140	      0.00011576	      0.00027998	      0.00011199	      0.00055995	      0.00035837	      0.00107511	      0.00060475	     -0.00053675	      0.00017746	      0.00021296	      0.00245561	      0.00861543	      0.00599334	     -0.00803275	      0.01939513	     -0.01839624	      0.00245561	      0.00861543	      0.00599334	      0.00054107	      0.01798003	     -0.00944784	      0.00390033	      0.00479093	      0.01585007	      0.00000000	      0.00750428	      0.00000000	     -0.00703386	     -0.03250557	     -0.00618604	      0.01709016	     -0.00062911	     -0.00573364	     -0.00087403	      0.01465040	     -0.00599334	      0.00241399	      0.02114319	     -0.01748059	     -0.00586848	      0.01269424	     -0.00536904	     -0.01223641	      0.02680357	     -0.03000834	     -0.02297449	      0.01419257	     -0.00720034	     -0.01523308	      0.03096561	     -0.03750002
      0.86666667	     -0.31706025	      0.13429176	     -0.13429176	      0.31706025	     -0.06419825	      0.51882768	      0.23320947	     -0.23320947	     -0.51882768	      0.06419825	     99.66676831	     75.06683173	     -1.73951326	    -25.15930530	     28.35465146	      6.87634612	     -0.08365117	     -0.67251426	     -0.11925370	     -0.33625713	     -4.05010818	      3.51696480	    -29.69270247	      3.99982991	     26.03091893	      9.94646781	     16.07550061	    -18.73851345	     36.89395196	      9.30751609	     80.58758680	     57.13290028	     24.15907299	     -6.87308366	     80.55796443	     44.20696877	     -2.40541767	     -8.61567652	      9.11593225	      5.01887713	      0.00083788	     -0.03084988	     -0.00482347	      0.01525749	     -0.01790268	     -0.01023686	      0.00704192	     -0.06522854	     -0.00060393	      0.00461471	     -0.18402834	      0.00026185	     -0.00082516	      0.00020213	      0.00008689	      0.00030932	      0.00012373	      0.00061863	      0.00039593	      0.00118778	      0.00066813	     -0.00025584	      0.00011037	      0.00013244	      0.00246053	      0.00863269	      0.00600535	     -0.00804884	      0.01943399	     -0.01843309	      0.00246053	      0.00863269	      0.00600535	      0.00054215	      0.01801605	     -0.00946677	      0.00390607	      0.00480053	      0.01586438	      0.00000000	      0.00753458	      0.00000000	     -0.00704795	     -0.03257069	     -0.00621120	      0.01657543	     -0.00059543	     -0.00529111	     -0.00087578	      0.01467975	     -0.00600535	      0.00241882	      0.02118555	     -0.01751561	     -0.00588024	      0.01271967	     -0.00537979	     -0.01226093	      0.02685727	     -0.03006846	     -0.02302051	      0.01422101	     -0.00721476	     -0.01526360	      0.03102765	     -0.03757515
      0.90000000	     -0.31767570	      0.13455243	     -0.13455243	      0.31767570	     -0.06432287	      0.51983479	      0.23366216	     -0.23366216	     -0.51983479	      0.06432287	     99.49248977	     75.21254546	     -1.73647153	    -24.12919119	     28.17191693	      4.25809671	     -0.06124839	     -0.50439903	     -0.08619320	     -0.25219952	     -0.75374537	      0.94713250	    -28.24367574	      4.18388129	     27.57141999	     10.23520327	     17.99200344	    -16.55102240	     32.38230174	      8.36962098	     73.82166417	     50.81792081	     19.00305268	     -7.81626664	     74.12870371	     40.42375995	      0.02562306	    -10.99179381	     12.11076490	      5.07198629	      0.00083184	     -0.03082893	     -0.00482010	      0.01504635	     -0.01785304	     -0.01038996	      0.00723537	     -0.06510344	     -0.00039301	      0.00437893	     -0.18405721	      0.00034833	     -0.00051097	      0.00012344	      0.00005683	      0.00030301	      0.00012120	      0.00060602	      0.00038785	      0.00116355	      0.00065450	     -0.00002654	      0.00001916	      0.00002299	      0.00246530	      0.00864945	      0.00601701	     -0.00806446	      0.01947171	     -0.01846887	      0.00246530	      0.00864945	      0.00601701	      0.00054320	      0.01805103	     -0.00948515	      0.00391164	      0.00480985	      0.01587823	      0.00000000	      0.00756406	      0.00000000	     -0.00706163	     -0.03263392	     -0.00623568	      0.01604500	     -0.00056202	     -0.00486200	     -0.00087748	      0.01470824	     -0.00601701	      0.00242352	      0.02122667	     -0.01754961	     -0.00589165	      0.01274436	     -0.00539024	     -0.01228473	      0.02690940	     -0.03012683	     -0.02306520	      0.01424861	     -0.00722877	     -0.01529323	      0.03108788	     -0.03764809
      0.93333333	     -0.31919140	      0.13519441	     -0.13519441	      0.31919140	     -0.06462976	      0.52231503	      0.23477701	     -0.23477701	     -0.52231503	      0.06462976	     99.09486267	     75.57140039	     -1.72953163	    -22.06659297	     28.02978361	      1.15305260	     -0.01273864	     -0.26364347	     -0.01742047	     -0.13182174	      3.38029389	     -2.56509203	    -26.42366675	      4.38151688	     27.42413277	     10.59607504	     20.50890681	    -14.66803673	     27.97681699	      7.42067196	     64.55468092	     44.11248897	     14.50075305	     -7.97028347	     65.64389347	     36.38542472	      3.69667859	    -12.47266346	     12.20504401	      5.09513084	      0.00082714	     -0.03081264	     -0.00481747	      0.01477563	     -0.01781443	     -0.01055906	      0.00746480	     -0.06495509	     -0.00014288	      0.00410206	     -0.18408892	      0.00045758	     -0.00013837	      0.00003287	      0.00001636	      0.00021153	      0.00008461	      0.00042307	      0.00027076	      0.00081229	      0.00045692	      0.00004242	     -0.00007816	     -0.00009379	      0.00247706	      0.00869072	      0.00604572	     -0.00810294	      0.01956461	     -0.01855699	      0.00247706	      0.00869072	      0.00604572	      0.00054579	      0.01813715	     -0.00953040	      0.00392533	      0.00483280	      0.01591210	      0.00000000	      0.00763690	      0.00000000	     -0.00709532	     -0.03278962	     -0.00629616	      0.01494023	     -0.00049624	     -0.00404878	     -0.00088167	      0.01477842	     -0.00604572	      0.00243508	      0.02132795	     -0.01763334	     -0.00591976	      0.01280516	     -0.00541595	     -0.01234334	      0.02703779	     -0.03027057	     -0.02317525	      0.01431659	     -0.00726326	     -0.01536620	      0.03123621	     -0.03782772
      0.96666667	     -0.32208204	      0.13641875	     -0.13641875	      0.32208204	     -0.06521506	      0.52704519	      0.23690318	     -0.23690318	     -0.52704519	      0.06521506	     98.45074051	     76.25578612	     -1.71828957	    -18.56109000	     27.89551032	     -2.82079506	      0.06136359	      0.03949367	      0.08019749	      0.01974683	      7.82181211	     -6.58884466	    -23.88131236	      4.74685774	     25.27167141	     10.86008605	     23.51240883	    -13.00014693	     23.57895664	      6.36477549	     54.26879431	     37.38380540	     10.48099397	     -7.49018955	     56.37975958	     32.36495753	      8.05170634	    -13.17132029	      9.59608756	      5.15973624	      0.00082270	     -0.03079725	     -0.00481499	      0.01439698	     -0.01777795	     -0.01075576	      0.00775842	     -0.06476523	      0.00017723	      0.00375206	     -0.18412551	      0.00060799	      0.00033849	     -0.00007869	     -0.00004306	     -0.00004171	     -0.00001669	     -0.00008343	     -0.00005339	     -0.00016018	     -0.00009010	      0.00003532	     -0.00016156	     -0.00019387	      0.00249950	      0.00876942	      0.00610047	     -0.00817632	      0.01974179	     -0.01872505	      0.00249950	      0.00876942	      0.00610047	      0.00055074	      0.01830140	     -0.00961671	      0.00395130	      0.00487656	      0.01597585	      0.00000000	      0.00777682	      0.00000000	     -0.00715958	     -0.03308657	     -0.00641233	      0.01293211	     -0.00038816	     -0.00281518	     -0.00088965	      0.01491226	     -0.00610047	      0.00245713	      0.02152110	     -0.01779303	     -0.00597337	      0.01292113	     -0.00546500	     -0.01245512	      0.02728265	     -0.03054470	     -0.02338513	      0.01444625	     -0.00732903	     -0.01550536	      0.03151908	     -0.03817029
